<?xml version="1.0" encoding="iso-8859-1"?>
<!-- Generator: Adobe Illustrator 19.0.0, SVG Export Plug-In . SVG Version: 6.00 Build 0)  -->
<svg version="1.1" id="Capa_1" xmlns="http://www.w3.org/2000/svg" xmlns:xlink="http://www.w3.org/1999/xlink" x="0px" y="0px"
	 viewBox="0 0 512 512" style="enable-background:new 0 0 512 512;" xml:space="preserve">
<g>
	<g>
		<path d="M396.742,102.088c-17.984-30.604-38.579-54.991-61.213-72.485C310.116,9.96,283.358,0,256,0
			c-27.357,0-54.115,9.96-79.528,29.603c-22.634,17.494-43.23,41.882-61.213,72.485C80.813,160.703,60.25,236.26,60.25,304.201
			c0,34.003,5.102,64.808,15.165,91.557c9.669,25.702,23.921,47.756,42.36,65.549C152.144,494.471,199.941,512,256,512
			s103.856-17.529,138.226-50.693c18.439-17.793,32.691-39.847,42.359-65.549c10.063-26.749,15.165-57.554,15.165-91.557
			C451.75,236.26,431.186,160.703,396.742,102.088z"/>
	</g>
</g>
<g>
</g>
<g>
</g>
<g>
</g>
<g>
</g>
<g>
</g>
<g>
</g>
<g>
</g>
<g>
</g>
<g>
</g>
<g>
</g>
<g>
</g>
<g>
</g>
<g>
</g>
<g>
</g>
<g>
</g>
</svg>
